<svg width="1281" height="737" viewBox="0 0 1281 737" fill="none" xmlns="http://www.w3.org/2000/svg">
<path d="M0 197.566C0 170.288 22.8335 148.175 51 148.175L1196 152.049C1224.17 152.049 1281 170.288 1281 197.566V687.608C1281 714.887 1258.17 737 1230 737H51C22.8335 737 0 714.887 0 687.608V197.566Z" fill="#A82126"/>
<path d="M192 151.08C210 151.08 212 81.351 252 75.5403H1170C1198.17 75.5403 1281 97.6536 1281 124.932V178.197C1281 205.475 1198.17 227.589 1170 227.589H244C215.834 227.589 145 193.693 158 171.418L192 151.08Z" fill="#A82126"/>
<path d="M802 75.5402C820 75.5402 822 5.81087 862 9.25152e-05H1247C1275.17 9.25152e-05 1258 17.2712 1258 44.5494V79.4142C1258 106.692 1224.17 152.049 1196 152.049L854 152.049C825.833 152.049 755 118.153 768 95.8779L802 75.5402Z" fill="#A82126"/>
<rect x="1142" width="139" height="296.35" rx="27" fill="#A82126"/>
</svg>
